<mxfile host="app.diagrams.net" modified="2023-11-01T03:25:20.406Z" agent="Mozilla/5.0 (Windows NT 10.0; Win64; x64) AppleWebKit/537.36 (KHTML, like Gecko) Chrome/118.0.0.0 Safari/537.36 Edg/118.0.2088.76" etag="tKerbKr0GvfnPTctKa6v" version="22.0.8" type="device">
  <diagram name="Trang-1" id="ZBcxui9xoKUOQCigZdpi">
    <mxGraphModel dx="824" dy="385" grid="1" gridSize="10" guides="1" tooltips="1" connect="1" arrows="1" fold="1" page="1" pageScale="1" pageWidth="827" pageHeight="1169" math="0" shadow="0">
      <root>
        <mxCell id="0" />
        <mxCell id="1" parent="0" />
        <mxCell id="Bxiez1ijw_XSGVXrORmv-4" value="" style="rounded=0;whiteSpace=wrap;html=1;" vertex="1" parent="1">
          <mxGeometry x="280" y="120" width="280" height="370" as="geometry" />
        </mxCell>
        <mxCell id="Bxiez1ijw_XSGVXrORmv-18" style="edgeStyle=none;rounded=0;orthogonalLoop=1;jettySize=auto;html=1;exitX=1;exitY=0.3333333333333333;exitDx=0;exitDy=0;exitPerimeter=0;" edge="1" parent="1" source="Bxiez1ijw_XSGVXrORmv-5" target="Bxiez1ijw_XSGVXrORmv-11">
          <mxGeometry relative="1" as="geometry" />
        </mxCell>
        <mxCell id="Bxiez1ijw_XSGVXrORmv-5" value="Nhân Viên&lt;br&gt;" style="shape=umlActor;verticalLabelPosition=bottom;verticalAlign=top;html=1;" vertex="1" parent="1">
          <mxGeometry x="180" y="180" width="60" height="60" as="geometry" />
        </mxCell>
        <mxCell id="Bxiez1ijw_XSGVXrORmv-34" style="edgeStyle=none;rounded=0;orthogonalLoop=1;jettySize=auto;html=1;exitX=0.5;exitY=0.5;exitDx=0;exitDy=0;exitPerimeter=0;entryX=0;entryY=0.5;entryDx=0;entryDy=0;" edge="1" parent="1" source="Bxiez1ijw_XSGVXrORmv-9" target="Bxiez1ijw_XSGVXrORmv-12">
          <mxGeometry relative="1" as="geometry" />
        </mxCell>
        <mxCell id="Bxiez1ijw_XSGVXrORmv-9" value="AI&lt;br&gt;" style="shape=umlActor;verticalLabelPosition=bottom;verticalAlign=top;html=1;" vertex="1" parent="1">
          <mxGeometry x="180" y="395" width="60" height="60" as="geometry" />
        </mxCell>
        <mxCell id="Bxiez1ijw_XSGVXrORmv-11" value="Đăng Nhập&lt;br&gt;" style="ellipse;whiteSpace=wrap;html=1;" vertex="1" parent="1">
          <mxGeometry x="360" y="170" width="120" height="70" as="geometry" />
        </mxCell>
        <mxCell id="Bxiez1ijw_XSGVXrORmv-12" value="Gọi Khách Hàng" style="ellipse;whiteSpace=wrap;html=1;" vertex="1" parent="1">
          <mxGeometry x="347" y="390" width="146" height="70" as="geometry" />
        </mxCell>
        <mxCell id="Bxiez1ijw_XSGVXrORmv-20" value="" style="endArrow=block;dashed=1;endFill=0;endSize=12;html=1;rounded=0;" edge="1" parent="1" target="Bxiez1ijw_XSGVXrORmv-21">
          <mxGeometry width="160" relative="1" as="geometry">
            <mxPoint x="420" y="240" as="sourcePoint" />
            <mxPoint x="490" y="440" as="targetPoint" />
          </mxGeometry>
        </mxCell>
        <mxCell id="Bxiez1ijw_XSGVXrORmv-22" value="&amp;lt;&amp;lt;include&amp;gt;&amp;gt;" style="edgeLabel;html=1;align=center;verticalAlign=middle;resizable=0;points=[];" vertex="1" connectable="0" parent="Bxiez1ijw_XSGVXrORmv-20">
          <mxGeometry x="-0.0154" y="1" relative="1" as="geometry">
            <mxPoint x="-13" y="-5" as="offset" />
          </mxGeometry>
        </mxCell>
        <mxCell id="Bxiez1ijw_XSGVXrORmv-21" value="Xác nhận đơn đặt trước" style="ellipse;whiteSpace=wrap;html=1;" vertex="1" parent="1">
          <mxGeometry x="290" y="305" width="100" height="65" as="geometry" />
        </mxCell>
        <mxCell id="Bxiez1ijw_XSGVXrORmv-23" value="Giọng nói AI" style="text;align=center;fontStyle=1;verticalAlign=middle;spacingLeft=3;spacingRight=3;strokeColor=none;rotatable=0;points=[[0,0.5],[1,0.5]];portConstraint=eastwest;html=1;" vertex="1" parent="1">
          <mxGeometry x="374" y="130" width="80" height="26" as="geometry" />
        </mxCell>
        <mxCell id="Bxiez1ijw_XSGVXrORmv-24" value="Lên order cho khách chưa đặt trước" style="ellipse;whiteSpace=wrap;html=1;" vertex="1" parent="1">
          <mxGeometry x="440" y="305" width="100" height="65" as="geometry" />
        </mxCell>
        <mxCell id="Bxiez1ijw_XSGVXrORmv-25" value="" style="endArrow=block;dashed=1;endFill=0;endSize=12;html=1;rounded=0;entryX=0.5;entryY=0;entryDx=0;entryDy=0;" edge="1" parent="1" target="Bxiez1ijw_XSGVXrORmv-24">
          <mxGeometry width="160" relative="1" as="geometry">
            <mxPoint x="420" y="240" as="sourcePoint" />
            <mxPoint x="550" y="350" as="targetPoint" />
          </mxGeometry>
        </mxCell>
        <mxCell id="Bxiez1ijw_XSGVXrORmv-26" value="&amp;lt;&amp;lt;include&amp;gt;&amp;gt;" style="edgeLabel;html=1;align=center;verticalAlign=middle;resizable=0;points=[];" vertex="1" connectable="0" parent="Bxiez1ijw_XSGVXrORmv-25">
          <mxGeometry x="-0.0538" y="1" relative="1" as="geometry">
            <mxPoint as="offset" />
          </mxGeometry>
        </mxCell>
        <mxCell id="Bxiez1ijw_XSGVXrORmv-27" style="edgeStyle=none;rounded=0;orthogonalLoop=1;jettySize=auto;html=1;exitX=0.5;exitY=1;exitDx=0;exitDy=0;" edge="1" parent="1" source="Bxiez1ijw_XSGVXrORmv-4" target="Bxiez1ijw_XSGVXrORmv-4">
          <mxGeometry relative="1" as="geometry" />
        </mxCell>
        <mxCell id="Bxiez1ijw_XSGVXrORmv-28" style="edgeStyle=none;rounded=0;orthogonalLoop=1;jettySize=auto;html=1;exitX=1;exitY=0.5;exitDx=0;exitDy=0;" edge="1" parent="1" source="Bxiez1ijw_XSGVXrORmv-11" target="Bxiez1ijw_XSGVXrORmv-11">
          <mxGeometry relative="1" as="geometry" />
        </mxCell>
        <mxCell id="Bxiez1ijw_XSGVXrORmv-33" style="edgeStyle=none;rounded=0;orthogonalLoop=1;jettySize=auto;html=1;exitX=0.5;exitY=1;exitDx=0;exitDy=0;" edge="1" parent="1" source="Bxiez1ijw_XSGVXrORmv-4" target="Bxiez1ijw_XSGVXrORmv-4">
          <mxGeometry relative="1" as="geometry" />
        </mxCell>
      </root>
    </mxGraphModel>
  </diagram>
</mxfile>
